<svg xmlns="http://www.w3.org/2000/svg" xmlns:xlink="http://www.w3.org/1999/xlink" width="84" height="84" viewBox="0 0 84 84">
  <defs>
    <clipPath id="clip-path">
      <rect id="Rectángulo_457429" data-name="Rectángulo 457429" width="76.925" height="52.593" fill="#fff"/>
    </clipPath>
  </defs>
  <g id="Grupo_1213573" data-name="Grupo 1213573" transform="translate(-705.711 -1685.523)">
    <g id="Grupo_1177731" data-name="Grupo 1177731">
      <g id="Grupo_1182674" data-name="Grupo 1182674">
        <g id="Grupo_1119665" data-name="Grupo 1119665" transform="translate(529.822 -3835.477)">
          <path id="Trazado_991847" data-name="Trazado 991847" d="M5,0H79a5,5,0,0,1,5,5V79a5,5,0,0,1-5,5H5a5,5,0,0,1-5-5V5A5,5,0,0,1,5,0Z" transform="translate(175.889 5521)" fill="#435e56"/>
        </g>
        <g id="Grupo_1213642" data-name="Grupo 1213642" transform="translate(708.754 1701.451)">
          <g id="Grupo_1213641" data-name="Grupo 1213641" clip-path="url(#clip-path)">
            <path id="Trazado_1004999" data-name="Trazado 1004999" d="M1.095,50.019l15.192-.025a10.328,10.328,0,0,1-3.009-10.838l-1.526.592-5.4.013a1.469,1.469,0,0,1-.975-.474,4.689,4.689,0,0,1-.215-1.274l4.325-6.077A10.632,10.632,0,0,1,12.3,29.328a4.571,4.571,0,0,1-.6-3.62A1.5,1.5,0,0,1,10.25,24.4l.1-8.283c.008-.637,1.519-.8,2.365-.7a6.625,6.625,0,0,1,.9-8.608,6.409,6.409,0,0,1,8.691.029,6.488,6.488,0,0,1,.782,8.592c.886-.128,2.4-.035,2.452.778.148,2.5.1,4.87.114,7.378l3.268,1.587,2.455-9.894a9.725,9.725,0,0,1,3.2-5.5l.016-4A5.689,5.689,0,0,1,39.958.013,5.571,5.571,0,0,1,46.04,4.868c.178,1.937.082,3.878.08,5.873a3.047,3.047,0,0,1-3.315,3.013,15.247,15.247,0,0,1-2.413-.557,3.345,3.345,0,0,0,1.023.854l10.214.081c.954.361,1.085,1.462.9,2.5.6,0,1.893-.027,2.2.43a8.073,8.073,0,0,1,.909,2.124l3.424.051a1.345,1.345,0,0,1,1.175,1.327l.009,6.173a1.4,1.4,0,0,1-1.225,1.515L60.5,32.325A10.28,10.28,0,0,1,69.7,49.977l6.07.04a1.373,1.373,0,0,1,1.158,1.254,1.357,1.357,0,0,1-1.471,1.32H1.476a1.418,1.418,0,0,1-1.459-1.1c-.113-.46.325-1.473,1.077-1.474M39.37,8.918a1.654,1.654,0,0,1-.919-1.1L38.47,4.95A1.288,1.288,0,0,1,39.7,3.884l3.257-.012a3.111,3.111,0,0,0-3.719-1.111,3.148,3.148,0,0,0-2.074,3L37.2,9.354l5.534,1.838a1.288,1.288,0,0,0,.736-.21c.115-.095.046-.663-.1-.711ZM43.549,6.34,40.787,6.6l2.735,1.069ZM18.468,11.566c.159.157.748.779.756,1.1l.063,2.47a3.858,3.858,0,0,0,2.464-4.189,3.911,3.911,0,0,0-3.787-3.253,3.8,3.8,0,0,0-3.793,3.2,3.75,3.75,0,0,0,2.514,4.268L16.6,13.686a2.477,2.477,0,0,1-1.1-2.9A2.522,2.522,0,0,1,17.929,9a1.462,1.462,0,0,1,1.329,1.152,2.674,2.674,0,0,1-.791,1.413M38.113,19.9l-2.138-1.159A3.335,3.335,0,0,1,34.5,14.791a3.639,3.639,0,0,1,3.474-2.479l-1.654-.594a6.464,6.464,0,0,0-2.185,3.244l-1.793,7.1,4.51.864Zm6.772-3.208L40.5,16.616,38.17,15.057a1.014,1.014,0,0,0-1.241.513,1.211,1.211,0,0,0,.579,1.141l2.69,1.276,4.7.031Zm5.1-.014-2.483,0c-.14.973-.149,1.722.515,2.126a1.829,1.829,0,0,0,1.695-.171c.378-.234.372-1.06.273-1.958m-33.309,1.32-2.617.036a1.83,1.83,0,0,0,2.627,1.029Zm5.132-.012-2.564.05.029,1.03c0,.165.528.166.721.185A1.448,1.448,0,0,0,21.8,17.982M50.76,21.043c-2.216,1.174-2.692.653-4.695-.439l-5.489-.05-1.815,4.659c1.572-.364,2.781-1.607,4.393-1.894,2.216-.394,4.566-.054,6.79-.222ZM19.287,23.157l3.788-.012-.043-2.083a2.241,2.241,0,0,1-1.113.719l-2.65.006Zm-2.6-1.38-2.381.024a4.382,4.382,0,0,1-1.5-.551l.052,1.9,3.834,0Zm41.037-.015-1.113.029.966,2.467Zm-3.775.163a1.824,1.824,0,0,0-1.24,2.506,2,2,0,0,0,2.563,1.11Zm-17.4,17.351,2.629-6.148a2.245,2.245,0,0,0-.274-1.762l-2.969-3.959.171-2.017-4.4-.817-.6,2.649c-.1.44.492,1.327.83,1.662l3.689,3.663a1.645,1.645,0,0,1,.151,1.387l-1.994,3.984ZM16.7,28.239l-.009-2.558-1.867.108c-.368.021-.752.884-.714,1.248.033.318.4,1.044.748,1.069Zm12.553,1.654L28.6,27.934l-4.532-2.245-4.812.023.008,2.489,5.34.025ZM47.269,29.5a3.019,3.019,0,0,0,2.686-3.779l-6.174-.007-4.165,2.1a6.885,6.885,0,0,0,1.262,1.756ZM35.019,48.4,32.673,46.08a12.61,12.61,0,0,1-2.807,3.928L56.033,50A10.245,10.245,0,0,1,58.1,33.217l-1.853-5.036a10.474,10.474,0,0,1-3.811-.372,5.992,5.992,0,0,1-3.432,4l2.058,2.1a2.018,2.018,0,0,1,.137,1.17L46.068,46.654a1.785,1.785,0,0,1-1.1.786l-6.681-.127c-.962-.018-1.974,2.359-3.266,1.084M11.446,37.089l9.34-4.66a5.833,5.833,0,0,0,1.121-1.665l-5.424.019a6.212,6.212,0,0,0-5.062,2.86l-2.5,3.576a6.389,6.389,0,0,0,2.528-.129M26.253,31.76c-.08-.42-1.315-.815-1.534-.463l-.449.718c-.035.057,2.21.937,1.984-.255M40.9,42.326l-1.854-.007.438,2.478,4.575.033,4.436-9.98L45.653,32.1l-3.711.013-.506,2.516a6.083,6.083,0,0,1,1.716.271c.357.151.479,1.029.366,1.465a1.556,1.556,0,0,1-1.225.867l-2.092.02-1.05,2.472,1.986.042a1.363,1.363,0,0,1,1.191,1.4A1.439,1.439,0,0,1,40.9,42.326m-9.293-5.859,1.274-2.525L28.91,32.532a2.339,2.339,0,0,0-.384,1.067,17.06,17.06,0,0,1,3.081,2.869m-4.283-.519-1.033,2.4a5.091,5.091,0,0,1,1.026,6.866,5.141,5.141,0,0,1-9.152-4.45,5.066,5.066,0,0,1,5.756-3.456l1.036-2.432a5.862,5.862,0,0,0-3.178-.028,18.27,18.27,0,0,0-4.023,2.083A7.305,7.305,0,0,0,16.3,45.942a7.617,7.617,0,0,0,8.1,3.944,7.423,7.423,0,0,0,6.122-6.034,4.881,4.881,0,0,1-1.015-1.164c-.443-.911,1.392-1.855.776-3.161a8.237,8.237,0,0,0-2.962-3.577m32.582,2.057-.917-2.339a7.729,7.729,0,1,0,2.448-.892l.884,2.474a5.009,5.009,0,0,1,5.51,4.072,5.1,5.1,0,0,1-9.583,3.235,5.278,5.278,0,0,1,1.658-6.55M21.855,41.978l.909-2.176a2.542,2.542,0,1,0,1.394,4.816,2.481,2.481,0,0,0,.983-3.745l-.865,1.931a1.483,1.483,0,0,1-1.512.784,1.389,1.389,0,0,1-.911-1.611m39.77.752-.783-1.983a2.5,2.5,0,0,0,.881,3.871,2.534,2.534,0,0,0,3.516-1.488,2.5,2.5,0,0,0-1.953-3.3l.72,1.945a1.286,1.286,0,1,1-2.38.958m-25.052.448-.508-1.27-2.6-1.3-1.021,1.557,3.482,3.454a1.837,1.837,0,0,0,.65-2.44" transform="translate(0 0.001)" fill="#fff"/>
          </g>
        </g>
      </g>
    </g>
  </g>
</svg>
