<svg xmlns="http://www.w3.org/2000/svg" xmlns:xlink="http://www.w3.org/1999/xlink" width="96" height="96" viewBox="0 0 96 96">
  <defs>
    <clipPath id="clip-path">
      <rect id="Rectángulo_458233" data-name="Rectángulo 458233" width="58.074" height="60.093" fill="#3d5357"/>
    </clipPath>
  </defs>
  <g id="Grupo_1214274" data-name="Grupo 1214274" transform="translate(-383.746 -8400.001)">
    <path id="Trazado_997400" data-name="Trazado 997400" d="M48,0A48,48,0,1,1,0,48,48,48,0,0,1,48,0Z" transform="translate(383.746 8400.001)" fill="#f39c86"/>
    <g id="Grupo_1099776" data-name="Grupo 1099776" transform="translate(401.746 8418)">
      <g id="Grupo_1099618" data-name="Grupo 1099618" transform="translate(-0.013 0.236)">
        <rect id="Rectángulo_401104" data-name="Rectángulo 401104" width="59.378" height="60.093" transform="translate(0)" fill="none"/>
      </g>
      <g id="Grupo_1214359" data-name="Grupo 1214359" transform="translate(0.987 0.236)">
        <g id="Grupo_1214358" data-name="Grupo 1214358" clip-path="url(#clip-path)">
          <path id="Trazado_1007200" data-name="Trazado 1007200" d="M29.1,111.353c-6.691-2.013-12.612-10.14-8.462-16.244a30.14,30.14,0,0,0-6.572-7.4,1.114,1.114,0,0,1-.133-1.343,1.025,1.025,0,0,1,1.343-.22,30.477,30.477,0,0,1,6.788,7.467,2.754,2.754,0,0,0,.928-3.817,18.953,18.953,0,0,0-6-6.2,3.069,3.069,0,0,0-4.149.379c-5.6,5.645-5.568,13.446-2.181,20.422A34.95,34.95,0,0,0,26.1,120.061a.981.981,0,0,1,.38,1.464,11.942,11.942,0,0,1-16.18,3.909A7.249,7.249,0,0,1,.218,122.378c-.32-.618-.348-1.2.326-1.582a1.1,1.1,0,0,1,1.465.65,5.174,5.174,0,0,0,6.55,2.566A6.064,6.064,0,0,1,7,118.085a3.714,3.714,0,0,1,3.269-2.5,3.546,3.546,0,0,1,3.511,2.361,5.863,5.863,0,0,1-1.644,6.2,10.034,10.034,0,0,0,12.054-2.818c-8.686-4.839-16.414-14-17.709-23.983a17.185,17.185,0,0,1,5.411-15.2,4.8,4.8,0,0,1,5.786-.466,19.947,19.947,0,0,1,7.032,7.09,4.806,4.806,0,0,1-1.333,6.408,5.291,5.291,0,0,0-2.056,5.229c.686,4.217,4.789,8.3,8.913,9.156a5.627,5.627,0,0,0,5.863-2.388,4.668,4.668,0,0,1,5.98-1,19.732,19.732,0,0,1,7.248,7.218,4.839,4.839,0,0,1-.872,6.011c-4.665,4.709-10.419,6.013-16.886,4.715a1.011,1.011,0,1,1,.567-1.939,15.809,15.809,0,0,0,13.043-2.57,30.826,30.826,0,0,0-5.641-6.579,1.1,1.1,0,0,1-.338-1.254,1,1,0,0,1,1.372-.444,30.3,30.3,0,0,1,6.151,6.941,2.908,2.908,0,0,0,.989-3.609,17.574,17.574,0,0,0-6.645-6.759,2.742,2.742,0,0,0-3.654.8,7.433,7.433,0,0,1-8.308,2.649m-18.711,11.6a3.9,3.9,0,0,0,1.586-4.067,1.55,1.55,0,0,0-1.559-1.294,1.645,1.645,0,0,0-1.576,1.294,4.257,4.257,0,0,0,1.549,4.067" transform="translate(0.001 -66.996)" fill="#3d5357"/>
          <path id="Trazado_1007201" data-name="Trazado 1007201" d="M165.738,4.561a13.365,13.365,0,0,0-.566,21.276c.214.172.656.74.583.993a16.54,16.54,0,0,1-1.378,3.179c-.544,1.008,1.371.665,1.375,1.935a1.068,1.068,0,0,1-1.06.964,2.661,2.661,0,0,1-2.015-1.239,2.514,2.514,0,0,1-.137-2.482l1.016-2.041a15.424,15.424,0,0,1,19.33-24.022,15.765,15.765,0,0,1,6,14.512c-1.026,8.973-7.508,13.459-16.022,15.007a1.069,1.069,0,0,1-1.286-.742c-.158-.7.3-1.164,1.012-1.276,7.7-1.206,13.7-5.6,14.348-13.747A13.6,13.6,0,0,0,180.508,3.93a13.335,13.335,0,0,0-14.77.631" transform="translate(-130.927 0.001)" fill="#3d5357"/>
          <path id="Trazado_1007202" data-name="Trazado 1007202" d="M211.892,61.621c-.019,2.113-1.639,3.109-3.445,3.114-1.887,0-3.522-.989-3.552-3.055l-.023-1.594-1.575-.022a3.156,3.156,0,0,1-3.087-3.51c.023-1.552.677-3.1,2.425-3.411a15.16,15.16,0,0,1,2.222-.083l.035-1.623a3.136,3.136,0,0,1,3.383-3.071c1.72-.025,3.511.808,3.576,2.723l.068,1.978,2,.043c1.874.04,2.647,1.783,2.669,3.446a3.18,3.18,0,0,1-3.172,3.514h-1.509Zm-2.032.2.038-2.839a1.01,1.01,0,0,1,.922-.909l2.913-.047c.91-.015,1.076-2,.518-2.667a1.566,1.566,0,0,0-.946-.329l-2.507.024a1.04,1.04,0,0,1-.877-.8l-.1-3.221c-.024-.805-2.845-.9-2.866.058L206.895,54a1.032,1.032,0,0,1-1.017,1.037l-2.75.032c-1.007.012-1.154,1.935-.628,2.666a1.477,1.477,0,0,0,.928.329l2.482-.009a1.13,1.13,0,0,1,.972.885l.081,3.088c.016.6,1,.7,1.464.694.585-.011,1.425-.093,1.436-.9" transform="translate(-165.739 -40.038)" fill="#3d5357"/>
        </g>
      </g>
    </g>
  </g>
</svg>
