<svg id="Grupo_1214285" data-name="Grupo 1214285" xmlns="http://www.w3.org/2000/svg" xmlns:xlink="http://www.w3.org/1999/xlink" width="129.193" height="127" viewBox="0 0 129.193 127">
  <defs>
    <clipPath id="clip-path">
      <rect id="Rectángulo_454807" data-name="Rectángulo 454807" width="129.193" height="127" fill="#ffdc6b"/>
    </clipPath>
    <clipPath id="clip-path-2">
      <rect id="Rectángulo_458247" data-name="Rectángulo 458247" width="70.586" height="70.586" fill="#3d5357"/>
    </clipPath>
  </defs>
  <rect id="Rectángulo_454806" data-name="Rectángulo 454806" width="129.193" height="127" transform="translate(0)" fill="#f39c86"/>
  <path id="Rectángulo_454808" data-name="Rectángulo 454808" d="M0,0H79.136a12,12,0,0,1,12,12V91a0,0,0,0,1,0,0H12A12,12,0,0,1,0,79V0A0,0,0,0,1,0,0Z" transform="translate(19.028 18)" fill="#fff"/>
  <g id="Grupo_1177491" data-name="Grupo 1177491" transform="translate(27.099 27.369)">
    <g id="Grupo_1099776" data-name="Grupo 1099776">
      <g id="Grupo_1099618" data-name="Grupo 1099618" transform="translate(0 0)">
        <rect id="Rectángulo_401104" data-name="Rectángulo 401104" width="72.278" height="73.149" transform="translate(0)" fill="none"/>
      </g>
      <g id="Grupo_1214379" data-name="Grupo 1214379" transform="translate(0 0.281)">
        <g id="Grupo_1214378" data-name="Grupo 1214378" clip-path="url(#clip-path-2)">
          <path id="Trazado_1007270" data-name="Trazado 1007270" d="M70.586,35.293A35.293,35.293,0,1,1,35.293,0,35.293,35.293,0,0,1,70.586,35.293M32.441,11.067a7.978,7.978,0,0,0,5.713,0,7.993,7.993,0,0,1,7.4.832,57.681,57.681,0,0,1,6.55,5.05l5.821-5.8A33.1,33.1,0,0,0,11.086,57.873L32.559,36.389a20.457,20.457,0,0,1-13.028-3.358A36.919,36.919,0,0,1,10.078,24.1a2.093,2.093,0,0,1-.08-1.2,1.976,1.976,0,0,1,.778-.6C19.46,18.111,24.444,8.145,32.441,11.067m5.77,10.908c2.84-.532,5.537.057,8.358.486l3.947-3.915a44.607,44.607,0,0,0-6.326-4.885,5.714,5.714,0,0,0-5.2-.561,9.975,9.975,0,0,1-7.225.048,6.049,6.049,0,0,0-5.411.471c-4.16,2.439-7.281,6.121-11.45,8.939a31.573,31.573,0,0,0,10.378-.3,19.929,19.929,0,0,1,7.182-.273,14.46,14.46,0,0,0,5.747-.008m-13.6,30.849a7.068,7.068,0,0,1,8.107-.864c-.39-3.355-.308-7.92,2.259-9.909a8.1,8.1,0,0,1,10.876,1.074,15.83,15.83,0,0,1,2.519,4.03,8,8,0,0,1,6.247-2.33,9.384,9.384,0,0,1,3.461,1.664,22.688,22.688,0,0,1,5.13,6.537,33.049,33.049,0,0,0-3.777-40.352l-5.759,5.748a27.282,27.282,0,0,0,6.37,4.069,1.128,1.128,0,0,1,.429,1.583c-4.472,6.014-11.72,12.2-19.4,12.3l-5.4.072L12.68,59.43a33.908,33.908,0,0,0,9.379,6.157c-.046-4.011-.133-10.261,2.554-12.763M55.644,22.617l-3.508-2.643-2.76,2.842a47.822,47.822,0,0,0,6.268-.2M29.6,34.158l5.247.048L44.6,24.45a15.9,15.9,0,0,0-6.622-.216,11.9,11.9,0,0,1-5.842-.182c-4.294-.53-9.052,1.226-12.919,1.019l-5.743-.307c3.972,4.623,10.037,9.34,16.123,9.4m8.442-.074a16.906,16.906,0,0,0,10.9-2.358,32.6,32.6,0,0,0,8.177-6.953l-6.155.324a32.4,32.4,0,0,1-3.659-.286Zm8.9,19.069a2.814,2.814,0,0,0,.2-2.577,17.8,17.8,0,0,0-2.183-5.106,6.12,6.12,0,0,0-7.456-2.4,36.607,36.607,0,0,0,2.462,9.182,8.685,8.685,0,0,0,1.612,2.476,4.406,4.406,0,0,0,5.368-1.57m4.475,11.026-2.91-9.246a6.784,6.784,0,0,1-7.817,1.877c-3.188-2.351-4.265-7.86-5.168-11.976l-.612,1.822a21.222,21.222,0,0,0,.742,8.5l3.294,13.038a33.253,33.253,0,0,0,12.472-4.011M57.9,54.557c1.243-.053,1.871-1.15,2.475-2-1.9-2.827-4.795-6.6-8.117-5.2l3.21,4.793a8.324,8.324,0,0,0,2.432,2.41m3.919.316c-1.577.9-2.444,2.079-4.159,1.951-3.169-1.182-5.391-5.455-7.39-8.511l-1.141,1.306,4.2,13.406a30.357,30.357,0,0,0,8.486-8.152M35.37,63.042l-1.884-7.533a5.161,5.161,0,0,0-4.9-2.1,33.931,33.931,0,0,0,.437,8.965,4.188,4.188,0,0,0,.748,1.534c2.109.45,4.557.772,5.6-.87m.638,2.5c-1.921,1.249-5.186,1.153-7.065.352-2.786-1.188-2.78-7.934-2.672-11.572a5.407,5.407,0,0,0-1.506,3.029,32.925,32.925,0,0,0-.349,9.164,32.294,32.294,0,0,0,12.26,1.812Z" fill="#3d5357"/>
        </g>
      </g>
    </g>
  </g>
</svg>
