<svg xmlns="http://www.w3.org/2000/svg" xmlns:xlink="http://www.w3.org/1999/xlink" width="84" height="84" viewBox="0 0 84 84">
  <defs>
    <clipPath id="clip-path">
      <rect id="Rectángulo_458230" data-name="Rectángulo 458230" width="67.746" height="65.303" fill="#12263f"/>
    </clipPath>
  </defs>
  <g id="Grupo_1214291" data-name="Grupo 1214291" transform="translate(-705.849 -1685.693)">
    <g id="Grupo_1177731" data-name="Grupo 1177731">
      <g id="Grupo_1182674" data-name="Grupo 1182674">
        <g id="Grupo_1119665" data-name="Grupo 1119665" transform="translate(529.96 -3835.307)">
          <path id="Trazado_991847" data-name="Trazado 991847" d="M5,0H79a5,5,0,0,1,5,5V79a5,5,0,0,1-5,5H5a5,5,0,0,1-5-5V5A5,5,0,0,1,5,0Z" transform="translate(175.889 5521)" fill="#f39c86"/>
        </g>
        <g id="Grupo_1214353" data-name="Grupo 1214353" transform="translate(713.849 1695.693)">
          <g id="Grupo_1214352" data-name="Grupo 1214352" clip-path="url(#clip-path)">
            <path id="Trazado_1007180" data-name="Trazado 1007180" d="M62.789,37.212a1.769,1.769,0,0,0,2.543-.352,1.822,1.822,0,0,0-.16-2.514l-1.959-1.986a1.121,1.121,0,0,1,.194-1.324,1.281,1.281,0,0,1,1.321.009l1.953,2a3.867,3.867,0,0,1-.008,5.336,3.821,3.821,0,0,1-5.35.2l-3.307-3.22A29.017,29.017,0,1,1,30.057,7.317a14.39,14.39,0,1,1,24.6,14.912l2.581,2.54a2.293,2.293,0,0,1,1.78.564L61.472,27.8a1.252,1.252,0,0,1,.082,1.379,1.2,1.2,0,0,1-1.4.137l-2.489-2.479-2.632,2.644ZM54.994,14.4A12.415,12.415,0,1,0,42.579,26.813,12.415,12.415,0,0,0,54.994,14.4M43.548,34.059,40,31.507a22.341,22.341,0,0,1-.09-2.942A14.476,14.476,0,0,1,28.279,12.609,23.7,23.7,0,1,0,43.905,54.747a1.052,1.052,0,0,1,1.385.339A1.08,1.08,0,0,1,45,56.406,25.693,25.693,0,1,1,28.719,10.6l.394-1.315A27.013,27.013,0,1,0,55.841,33.131l-1.511-1.41a25.906,25.906,0,0,1-5.672,21.139,1.129,1.129,0,0,1-1.485.354,1.06,1.06,0,0,1-.2-1.455A23.669,23.669,0,0,0,50.6,26.5l-2.1,1.011-.043,3.947-3.765,2.708a1.4,1.4,0,0,1-1.139-.111m9.931-10.246-1.465,1.464,2.232,2.234,1.465-1.464ZM44.19,32.056l2.336-1.649-.019-2.1a33.327,33.327,0,0,1-4.634.582l.067,1.594Z" transform="translate(0 0)" fill="#12263f"/>
            <path id="Trazado_1007181" data-name="Trazado 1007181" d="M45.453,175.795c-.869-.252-.2-2.424-.937-2.273-.567.115-.583,1.469-1.648,1.542a1.231,1.231,0,0,1-.944-.646,1.912,1.912,0,0,1,.3-1.247l.327-.574c.067-.116-.2-.5-.323-.448l-.694.315a2.705,2.705,0,0,1-1.128.34,1.22,1.22,0,0,1-.787-.984,1.671,1.671,0,0,1,.776-1.038l.509-.253c.144-.071.215-.628.057-.649l-.745-.1a3.046,3.046,0,0,1-1.133-.3,1.4,1.4,0,0,1-.194-1.133c.286-.862,1.707-.325,1.956-.807.409-.795-1.024-.855-1.179-1.6a1.208,1.208,0,0,1,.413-1.128c.949-.438,1.467.575,2.064.194.647-.412-.97-1.695.156-2.389a1.023,1.023,0,0,1,1.529.517c.085.187.4.47.588.447.857-.1.167-1.813,1.371-1.948a.954.954,0,0,1,1.1,1.224.835.835,0,0,0,.479.716.917.917,0,0,0,.719-.462.982.982,0,0,1,1.433-.536c1.189.738-.441,1.867.3,2.563.172.162.5-.039.837-.255a1.065,1.065,0,0,1,1.539.42c.492,1.145-1.23,1.346-1.228,2.02,0,.848,1.238.161,1.9.775a1.208,1.208,0,0,1,.041,1.219,1.908,1.908,0,0,1-1.159.458l-.692.018c-.158,0-.28.545-.144.629l.592.37a1.916,1.916,0,0,1,.764.859,1.168,1.168,0,0,1-.622,1.107,1.837,1.837,0,0,1-1.242-.268l-.58-.347c-.124-.074-.539.181-.48.312l.336.738a2.712,2.712,0,0,1,.253,1.285c-.044.309-.658.6-1.024.576s-.788-.491-1-.877L47.6,173.6c-.068-.126-.556-.113-.571.028l-.088.848a2.584,2.584,0,0,1-.325,1.171,1.5,1.5,0,0,1-1.159.153m3.706-7.283a3.221,3.221,0,1,0-3.221,3.221,3.221,3.221,0,0,0,3.221-3.221" transform="translate(-31.307 -130.254)" fill="#12263f"/>
            <path id="Trazado_1007182" data-name="Trazado 1007182" d="M158.106,208.627a2.632,2.632,0,0,0-2.953,2.588,1.3,1.3,0,0,1-.82,1.005c-.345.109-1.127-.271-1.155-.709a4.613,4.613,0,0,1,5-4.882,2.566,2.566,0,0,0,2.618-2.619,4.668,4.668,0,0,1,5.142-4.571,2.773,2.773,0,0,0,3-2.858,4.522,4.522,0,0,1,4.388-4.375,1.014,1.014,0,0,1,1.148.968,1.067,1.067,0,0,1-1.135,1.049,2.657,2.657,0,0,0-2.481,2.752,4.57,4.57,0,0,1-4.91,4.432,3.224,3.224,0,0,0-2.317.683,3.153,3.153,0,0,0-.874,2.207,4.572,4.572,0,0,1-4.648,4.33" transform="translate(-123.438 -154.898)" fill="#12263f"/>
            <path id="Trazado_1007183" data-name="Trazado 1007183" d="M157.1,187.406a3.71,3.71,0,0,1-3.577,3.829,3.688,3.688,0,1,1-.006-7.372,3.695,3.695,0,1,1,3.584,3.543m1.825-3.684a1.706,1.706,0,1,0-1.706,1.706,1.706,1.706,0,0,0,1.706-1.706m-3.831,3.832a1.7,1.7,0,1,0-1.7,1.7,1.7,1.7,0,0,0,1.7-1.7" transform="translate(-120.642 -145.091)" fill="#12263f"/>
            <path id="Trazado_1007184" data-name="Trazado 1007184" d="M126.482,138.631l-3.267,2.307a1.5,1.5,0,0,1-1.261-.055l-3.6-2.628.015-5.671,3.721-2.677a1.411,1.411,0,0,1,1.116-.009l3.72,2.7.03,5.073a1.741,1.741,0,0,1-.471.957m-3.792.281,2.28-1.7-.01-3.61-2.316-1.658-2.325,1.664.031,3.69Z" transform="translate(-95.379 -104.595)" fill="#12263f"/>
            <path id="Trazado_1007185" data-name="Trazado 1007185" d="M90.981,253.41c-2.542.092-4.883.086-7.306,0a2.861,2.861,0,0,1-2.48-2.816,3.015,3.015,0,0,1,2.495-3.044l7.185.033a2.884,2.884,0,0,1,2.662,2.817,2.843,2.843,0,0,1-2.555,3.005m-.467-1.893a1.173,1.173,0,0,0,1.042-.908c.038-.319-.338-1.062-.677-1.063l-6.834-.018a1.1,1.1,0,0,0-.89,1.042c.024.322.531.931.884.932Z" transform="translate(-65.434 -199.504)" fill="#12263f"/>
            <path id="Trazado_1007186" data-name="Trazado 1007186" d="M85.531,99.167a3.7,3.7,0,1,1-3.7-3.7,3.7,3.7,0,0,1,3.7,3.7m-1.983,0a1.708,1.708,0,1,0-1.708,1.708,1.708,1.708,0,0,0,1.708-1.708" transform="translate(-62.97 -76.939)" fill="#12263f"/>
            <path id="Trazado_1007187" data-name="Trazado 1007187" d="M179.713,22.175a8.894,8.894,0,1,0,2.616,3.077,1.086,1.086,0,0,1,.238-1.427.991.991,0,0,1,1.448.341,10.783,10.783,0,1,1-3.4-3.751,1.215,1.215,0,0,1,.328,1.207c-.106.3-.825.832-1.228.553" transform="translate(-131.968 -14.945)" fill="#12263f"/>
            <path id="Trazado_1007188" data-name="Trazado 1007188" d="M198.084,47.555a3.821,3.821,0,0,1,.1,5.289,3.73,3.73,0,0,1-5.376-.01A3.7,3.7,0,0,1,187.4,52.8a3.745,3.745,0,0,1,.164-5.227,3.7,3.7,0,1,1,5.224-5.245,3.794,3.794,0,0,1,5.2-.186,3.712,3.712,0,0,1,.1,5.415m-6.272-2.669a1.707,1.707,0,1,0-1.707,1.707,1.707,1.707,0,0,0,1.707-1.707m5.407,0a1.7,1.7,0,1,0-1.7,1.7,1.7,1.7,0,0,0,1.7-1.7m-5.406,5.417a1.709,1.709,0,1,0-1.709,1.709,1.709,1.709,0,0,0,1.709-1.709m5.406-.008a1.7,1.7,0,1,0-1.7,1.7,1.7,1.7,0,0,0,1.7-1.7" transform="translate(-150.227 -33.194)" fill="#12263f"/>
            <path id="Trazado_1007189" data-name="Trazado 1007189" d="M78.11,199.418a1,1,0,1,1-.995-.995.995.995,0,0,1,.995.995" transform="translate(-61.345 -159.909)" fill="#12263f"/>
            <path id="Trazado_1007190" data-name="Trazado 1007190" d="M76.417,183.834a.983.983,0,1,1-.983-.982.983.983,0,0,1,.983.982" transform="translate(-60.001 -147.36)" fill="#12263f"/>
            <path id="Trazado_1007191" data-name="Trazado 1007191" d="M62.976,194.23a.988.988,0,1,1-.988-.988.988.988,0,0,1,.988.988" transform="translate(-49.16 -155.733)" fill="#12263f"/>
          </g>
        </g>
      </g>
    </g>
  </g>
</svg>
