<svg xmlns="http://www.w3.org/2000/svg" xmlns:xlink="http://www.w3.org/1999/xlink" width="98" height="98" viewBox="0 0 98 98">
  <defs>
    <clipPath id="clip-path">
      <rect id="Rectángulo_457293" data-name="Rectángulo 457293" width="54.933" height="53.389" fill="#435e56"/>
    </clipPath>
  </defs>
  <g id="Grupo_1182698" data-name="Grupo 1182698" transform="translate(-289.609 -11611.898)">
    <g id="Grupo_1177473" data-name="Grupo 1177473" transform="translate(289.609 11611.898)">
      <ellipse id="Elipse_13609" data-name="Elipse 13609" cx="49" cy="49" rx="49" ry="49" transform="translate(0)" fill="#fff"/>
      <g id="Grupo_1099776" data-name="Grupo 1099776" transform="translate(19.399 19.663)">
        <g id="Grupo_1099618" data-name="Grupo 1099618" transform="translate(0.313 -0.421)">
          <rect id="Rectángulo_401104" data-name="Rectángulo 401104" width="58.134" height="58.835" transform="translate(0)" fill="none"/>
        </g>
        <g id="Grupo_1213521" data-name="Grupo 1213521" transform="translate(1.312 2.579)">
          <g id="Grupo_1213520" data-name="Grupo 1213520" clip-path="url(#clip-path)">
            <path id="Trazado_1004596" data-name="Trazado 1004596" d="M25.337,19.033c-.474.269-.957-.11-1.287-.313a19.939,19.939,0,0,1-7.383-7.632l-3.186-.029a.906.906,0,0,1-1-.679A.834.834,0,0,1,13.22,9.3l2.671-.064a8.333,8.333,0,0,1-.43-4.2,3.5,3.5,0,0,1,4.173-2.971,11.769,11.769,0,0,1,5.329,2.825,13.024,13.024,0,0,1,4.958-2.744A3.637,3.637,0,0,1,34.592,5.1c.587,3.337-1.467,7.065-3.77,9.606a21.73,21.73,0,0,1-5.485,4.322m-.846-4.74a.861.861,0,0,1-1.031.452.872.872,0,0,1-.617-.662l-1.186-3.963c-.119.56-.369.9-.9.919L18.7,11.1a18.059,18.059,0,0,0,6.272,6.1c3.9-2.26,8.318-7.118,7.914-11.5A2.2,2.2,0,0,0,32.068,4.1c-1.662-1.068-4.465.908-6.21,2.386-.316.268-.557.491-.957.457a1.512,1.512,0,0,1-.807-.446c-1.733-1.46-4.623-3.523-6.18-2.382-1.215.891-.828,3.481-.1,5.177l2.246-.008.74-2.482a.921.921,0,0,1,.7-.734c.332-.056.848.024.965.418l1.286,4.35.517-1.389a.885.885,0,0,1,.86-.491l3.41.019a.826.826,0,0,1,.8.925.85.85,0,0,1-.95.815l-2.675.015Z" transform="translate(-10.437 -1.681)" fill="#435e56"/>
            <path id="Trazado_1004597" data-name="Trazado 1004597" d="M93.851,53.389A4.1,4.1,0,0,1,89.7,49.6l-.013-3.113a6.9,6.9,0,0,1,6.673-7.055L100,39.386l.006-7.295a15.151,15.151,0,0,1,2.138-22.926A8.782,8.782,0,1,1,119.7,9.147a15.154,15.154,0,0,1,2.159,22.938l.007,7.287,8.169.037.013,13.975Zm24.078-44.62a7,7,0,1,0-7,7,7,7,0,0,0,7-7M110.952,31.91l5.3-5.274a.886.886,0,0,1,1.182.122.913.913,0,0,1,.034,1.1l-5.288,5.308,3.041,3,5.679-5.676a13.381,13.381,0,0,0-1.492-19.333,8.823,8.823,0,0,1-16.958.01A13.316,13.316,0,0,0,101.374,30.9L109.44,38.9a2.312,2.312,0,0,0,2.971.012l1.522-1.513-9.6-9.619c-.3-.3-.042-.942.182-1.111.2-.148.749-.349,1.013-.09Zm-3.695,7.428-5.435-5.445-.043,5.524Zm12.837.049-.049-5.486-5.476,5.466Zm-.053,5.785,0-3.988L96.673,41.2a5.188,5.188,0,0,0-5.182,4.678,4.563,4.563,0,0,1,2.411-.7Zm8.235-3.979h-6.415V51.6h6.415Zm-8.205,10.389,0-4.633H93.9a2.342,2.342,0,0,0-2.426,2.258,2.3,2.3,0,0,0,2.26,2.367Z" transform="translate(-75.111 0)" fill="#435e56"/>
            <path id="Trazado_1004598" data-name="Trazado 1004598" d="M13.426,252.537a6.713,6.713,0,1,1-6.713-6.713,6.713,6.713,0,0,1,6.713,6.713m-1.783,0a4.93,4.93,0,1,0-4.93,4.93,4.93,4.93,0,0,0,4.93-4.93" transform="translate(0 -205.884)" fill="#435e56"/>
          </g>
        </g>
      </g>
    </g>
  </g>
</svg>
