<svg xmlns="http://www.w3.org/2000/svg" xmlns:xlink="http://www.w3.org/1999/xlink" width="98" height="98" viewBox="0 0 98 98">
  <defs>
    <clipPath id="clip-path">
      <rect id="Rectángulo_457294" data-name="Rectángulo 457294" width="58.1" height="53.121" fill="#435e56"/>
    </clipPath>
  </defs>
  <g id="Grupo_1182697" data-name="Grupo 1182697" transform="translate(-280.609 -11611.898)">
    <g id="Grupo_1177473" data-name="Grupo 1177473" transform="translate(280.609 11611.898)">
      <ellipse id="Elipse_13609" data-name="Elipse 13609" cx="49" cy="49" rx="49" ry="49" transform="translate(0)" fill="#fff"/>
      <g id="Grupo_1099776" data-name="Grupo 1099776" transform="translate(19.399 19.663)">
        <g id="Grupo_1099618" data-name="Grupo 1099618" transform="translate(0.313 -0.421)">
          <rect id="Rectángulo_401104" data-name="Rectángulo 401104" width="58.134" height="58.835" transform="translate(0)" fill="none"/>
        </g>
        <g id="Grupo_1213523" data-name="Grupo 1213523" transform="translate(0.312 2.579)">
          <g id="Grupo_1213522" data-name="Grupo 1213522" clip-path="url(#clip-path)">
            <path id="Trazado_1004599" data-name="Trazado 1004599" d="M19.431,82.5c.437,2.342.409,4.726,1.028,7.013l3.509,9.919c.548,1.548-.822,3.081-2.128,3.5-1.416.455-3.384-.019-3.982-1.544l-3.6-9.2a8.143,8.143,0,0,1-.447-1.719l-.779-5.67c-.952,1.81-1.737,3.367-2.5,5.094l-.09,10.214a3.15,3.15,0,0,1-3.21,3,3.216,3.216,0,0,1-3.163-3.322L4.1,89.612a6.517,6.517,0,0,1,.753-2.62l2.432-5.017a3.522,3.522,0,0,1-.466-1.67V71.629L4.189,73.184A2.742,2.742,0,0,1,.457,72.4a2.671,2.671,0,0,1,.722-3.729l5.647-3.339A6.585,6.585,0,0,1,9,60L10.5,61.071a4.892,4.892,0,0,0-1.8,3.142L12.2,62.2a2.741,2.741,0,0,1,3.677.811,2.682,2.682,0,0,1-.782,3.755l-6.446,3.8-.011,9.9a.908.908,0,0,0,.842.844h8.352a1.045,1.045,0,0,0,.8-.872L18.62,64.986a5.258,5.258,0,0,0-1.872-3.916l1.534-1.089a12.336,12.336,0,0,1,1.553,2.189l8.7,4.059a2.711,2.711,0,0,1-2.266,4.911l-5.832-2.657,0,11.8a2.783,2.783,0,0,1-1,2.208M3.351,71.564l10.736-6.3A.932.932,0,0,0,14.362,64a1.034,1.034,0,0,0-1.163-.293L2.192,70.17a.9.9,0,0,0-.143,1.317,1.01,1.01,0,0,0,1.3.078m23.563-2.1a.944.944,0,0,0,1.188-.608,1.072,1.072,0,0,0-.447-1.059L20.45,64.474,20.444,66.5ZM8.643,99.932l.046-8.982a5.541,5.541,0,0,1,.42-2.37l2.66-5.427-3-.066L6.533,87.672a6.192,6.192,0,0,0-.655,2.788l.021,9.554a1.4,1.4,0,0,0,1.491,1.272,1.37,1.37,0,0,0,1.252-1.353m13.55-.163-3.51-9.817c-.642-2.242-.525-4.534-1.03-6.809l-2.994,0c.541,2.516.407,5.074,1.11,7.564.942,3.341,2.44,6.41,3.58,9.681a1.566,1.566,0,0,0,1.82.843c.486-.1,1.291-.718,1.024-1.465" transform="translate(0 -49.994)" fill="#435e56"/>
            <path id="Trazado_1004600" data-name="Trazado 1004600" d="M174.144,171.119a3.7,3.7,0,0,0,1.313,3.207l-4.7,11.993a.944.944,0,0,0,.464,1.178.922.922,0,0,0,1.14-.4l4.447-11.355c.168-.429.8-.427,1.15-.266l9.5,4.34a.905.905,0,0,1,.5,1.051l-2.414,6.451a2.035,2.035,0,0,0,.269,1.843,2.1,2.1,0,0,0,1.686.779l9.5,0v-3.3l-7.7,0,3.577-8.61a3.254,3.254,0,0,0-1.862-4.081l-12-5.477a3.463,3.463,0,0,0-4.285,1.187l.019-2.484a5.329,5.329,0,0,1,5.191-.285l11.653,5.311c2.507,1.143,4.082,3.824,2.973,6.52l-2.509,6.1,5.09.033a1.758,1.758,0,0,1,1.686,1.745l.007,3.348A1.819,1.819,0,0,1,197,191.766h-9.65a3.84,3.84,0,0,1-2.9-1.4,3.892,3.892,0,0,1-.712-3.384l2.19-5.862-7.844-3.6-4.094,10.353a2.635,2.635,0,0,1-3.333,1.338A2.667,2.667,0,0,1,169,185.888l4.359-11.2a7.448,7.448,0,0,1-.809-1.625Z" transform="translate(-140.731 -138.645)" fill="#435e56"/>
            <path id="Trazado_1004601" data-name="Trazado 1004601" d="M61.773,4.993A4.993,4.993,0,1,1,56.781,0a4.993,4.993,0,0,1,4.993,4.993m-1.827,0a3.174,3.174,0,1,0-3.174,3.174,3.174,3.174,0,0,0,3.174-3.174" transform="translate(-43.165)" fill="#435e56"/>
            <path id="Trazado_1004602" data-name="Trazado 1004602" d="M148.089,154.514a4.538,4.538,0,1,1-4.538-4.538,4.538,4.538,0,0,1,4.538,4.538m-1.818,0a2.717,2.717,0,1,0-2.717,2.717,2.718,2.718,0,0,0,2.717-2.717" transform="translate(-115.866 -125.005)" fill="#435e56"/>
            <path id="Trazado_1004603" data-name="Trazado 1004603" d="M221.239,79.311l2.479-2.436c.561-.551,1.514.788,2.339.21a.992.992,0,0,0,.3-.987c-.436-1.067-1.541-.244-2.1-.948-.222-.278-.215-1.076.087-1.242a2.559,2.559,0,0,1,2.9.427,2.693,2.693,0,0,1,.834,2.956,2.729,2.729,0,0,1-3.768,1.517l-1.783,1.783a1.01,1.01,0,0,1-1.263.072.988.988,0,0,1-.013-1.351" transform="translate(-184.186 -61.369)" fill="#435e56"/>
            <path id="Trazado_1004604" data-name="Trazado 1004604" d="M202.654,133.272a.973.973,0,0,1-1.27-.278,1,1,0,0,1,.2-1.193l3.741-2.8a1.033,1.033,0,0,1,1.243.3.989.989,0,0,1-.23,1.217Z" transform="translate(-167.761 -107.433)" fill="#435e56"/>
            <path id="Trazado_1004605" data-name="Trazado 1004605" d="M186.289,110.562a.964.964,0,0,1-1.185.028,1.1,1.1,0,0,1-.209-1.179l2.89-3.841c.224-.3.974-.235,1.209-.02a1.036,1.036,0,0,1,.153,1.221Z" transform="translate(-154.026 -87.823)" fill="#435e56"/>
          </g>
        </g>
      </g>
    </g>
  </g>
</svg>
